<mxfile host="app.diagrams.net" agent="Mozilla/5.0 (Windows NT 10.0; Win64; x64) AppleWebKit/537.36 (KHTML, like Gecko) Chrome/131.0.0.0 Safari/537.36 Edg/131.0.0.0" version="24.8.6">
  <diagram name="第 1 页" id="HD6CbOFBPvVkYwJS1oVJ">
    <mxGraphModel dx="1626" dy="1524" grid="1" gridSize="10" guides="1" tooltips="1" connect="1" arrows="1" fold="1" page="0" pageScale="1" pageWidth="827" pageHeight="1169" math="0" shadow="0">
      <root>
        <mxCell id="0" />
        <mxCell id="1" parent="0" />
        <mxCell id="cS9FfNnVRPMtkp7Quj1r-5" value="" style="edgeStyle=none;curved=1;rounded=0;orthogonalLoop=1;jettySize=auto;html=1;fontSize=12;startSize=8;endSize=8;" edge="1" parent="1" source="cS9FfNnVRPMtkp7Quj1r-1" target="cS9FfNnVRPMtkp7Quj1r-4">
          <mxGeometry relative="1" as="geometry" />
        </mxCell>
        <mxCell id="cS9FfNnVRPMtkp7Quj1r-1" value="App.vue" style="rounded=0;whiteSpace=wrap;html=1;fillColor=#dae8fc;strokeColor=#6c8ebf;" vertex="1" parent="1">
          <mxGeometry x="-230" y="-520" width="120" height="60" as="geometry" />
        </mxCell>
        <mxCell id="cS9FfNnVRPMtkp7Quj1r-7" value="false" style="edgeStyle=none;curved=1;rounded=0;orthogonalLoop=1;jettySize=auto;html=1;fontSize=12;startSize=8;endSize=8;" edge="1" parent="1" source="cS9FfNnVRPMtkp7Quj1r-4" target="cS9FfNnVRPMtkp7Quj1r-6">
          <mxGeometry relative="1" as="geometry" />
        </mxCell>
        <mxCell id="cS9FfNnVRPMtkp7Quj1r-11" value="" style="edgeStyle=none;curved=1;rounded=0;orthogonalLoop=1;jettySize=auto;html=1;fontSize=12;startSize=8;endSize=8;" edge="1" parent="1" source="cS9FfNnVRPMtkp7Quj1r-4" target="cS9FfNnVRPMtkp7Quj1r-10">
          <mxGeometry relative="1" as="geometry" />
        </mxCell>
        <mxCell id="cS9FfNnVRPMtkp7Quj1r-4" value="是否登录" style="rhombus;whiteSpace=wrap;html=1;fillColor=#f8cecc;strokeColor=#b85450;rounded=0;" vertex="1" parent="1">
          <mxGeometry x="-210" y="-350" width="80" height="80" as="geometry" />
        </mxCell>
        <mxCell id="cS9FfNnVRPMtkp7Quj1r-21" style="edgeStyle=none;curved=1;rounded=0;orthogonalLoop=1;jettySize=auto;html=1;exitX=0.75;exitY=1;exitDx=0;exitDy=0;entryX=1;entryY=0.5;entryDx=0;entryDy=0;fontSize=12;startSize=8;endSize=8;" edge="1" parent="1" source="cS9FfNnVRPMtkp7Quj1r-6" target="cS9FfNnVRPMtkp7Quj1r-17">
          <mxGeometry relative="1" as="geometry">
            <Array as="points">
              <mxPoint x="120" y="50" />
            </Array>
          </mxGeometry>
        </mxCell>
        <mxCell id="cS9FfNnVRPMtkp7Quj1r-22" value="登录成功" style="edgeLabel;html=1;align=center;verticalAlign=middle;resizable=0;points=[];fontSize=12;" vertex="1" connectable="0" parent="cS9FfNnVRPMtkp7Quj1r-21">
          <mxGeometry x="-0.3219" y="-32" relative="1" as="geometry">
            <mxPoint as="offset" />
          </mxGeometry>
        </mxCell>
        <mxCell id="cS9FfNnVRPMtkp7Quj1r-6" value="跳转到登录界面" style="whiteSpace=wrap;html=1;fillColor=#dae8fc;strokeColor=#6c8ebf;rounded=0;" vertex="1" parent="1">
          <mxGeometry x="-30" y="-340" width="120" height="60" as="geometry" />
        </mxCell>
        <mxCell id="cS9FfNnVRPMtkp7Quj1r-13" style="edgeStyle=none;curved=1;rounded=0;orthogonalLoop=1;jettySize=auto;html=1;entryX=0.5;entryY=1;entryDx=0;entryDy=0;fontSize=12;startSize=8;endSize=8;exitX=1;exitY=0.5;exitDx=0;exitDy=0;" edge="1" parent="1" source="cS9FfNnVRPMtkp7Quj1r-10" target="cS9FfNnVRPMtkp7Quj1r-6">
          <mxGeometry relative="1" as="geometry">
            <Array as="points">
              <mxPoint x="40" y="-80" />
            </Array>
          </mxGeometry>
        </mxCell>
        <mxCell id="cS9FfNnVRPMtkp7Quj1r-16" value="true" style="edgeLabel;html=1;align=center;verticalAlign=middle;resizable=0;points=[];fontSize=12;" vertex="1" connectable="0" parent="cS9FfNnVRPMtkp7Quj1r-13">
          <mxGeometry x="0.2833" y="31" relative="1" as="geometry">
            <mxPoint as="offset" />
          </mxGeometry>
        </mxCell>
        <mxCell id="cS9FfNnVRPMtkp7Quj1r-18" value="" style="edgeStyle=none;curved=1;rounded=0;orthogonalLoop=1;jettySize=auto;html=1;fontSize=12;startSize=8;endSize=8;" edge="1" parent="1" source="cS9FfNnVRPMtkp7Quj1r-10" target="cS9FfNnVRPMtkp7Quj1r-17">
          <mxGeometry relative="1" as="geometry" />
        </mxCell>
        <mxCell id="cS9FfNnVRPMtkp7Quj1r-19" value="true" style="edgeLabel;html=1;align=center;verticalAlign=middle;resizable=0;points=[];fontSize=12;" vertex="1" connectable="0" parent="cS9FfNnVRPMtkp7Quj1r-18">
          <mxGeometry x="-0.1846" y="1" relative="1" as="geometry">
            <mxPoint as="offset" />
          </mxGeometry>
        </mxCell>
        <mxCell id="cS9FfNnVRPMtkp7Quj1r-10" value="登录状态是否过期" style="rhombus;whiteSpace=wrap;html=1;fillColor=#f8cecc;strokeColor=#b85450;rounded=0;" vertex="1" parent="1">
          <mxGeometry x="-210" y="-150" width="80" height="80" as="geometry" />
        </mxCell>
        <mxCell id="cS9FfNnVRPMtkp7Quj1r-17" value="进入首页" style="whiteSpace=wrap;html=1;fillColor=#dae8fc;strokeColor=#6c8ebf;rounded=0;" vertex="1" parent="1">
          <mxGeometry x="-230" y="60" width="120" height="60" as="geometry" />
        </mxCell>
        <mxCell id="cS9FfNnVRPMtkp7Quj1r-20" value="wx.login换取微信登录凭证code,code作为请求参数发请求得到openID" style="shape=note;whiteSpace=wrap;html=1;backgroundOutline=1;fontColor=#000000;darkOpacity=0.05;fillColor=#FFF9B2;strokeColor=none;fillStyle=solid;direction=west;gradientDirection=north;gradientColor=#FFF2A1;shadow=1;size=20;pointerEvents=1;align=left;" vertex="1" parent="1">
          <mxGeometry x="110" y="-350" width="150" height="110" as="geometry" />
        </mxCell>
      </root>
    </mxGraphModel>
  </diagram>
</mxfile>
